<svg viewBox="0 0 1024 1024" xmlns="http://www.w3.org/2000/svg" width="128" height="128"><path d="M826.56256 358.4 217.91744 358.4C176.81408 358.4 143.36 391.85408 143.36 432.95744l0 383.36512C143.36 857.42592 176.81408 890.88 217.91744 890.88l608.64512 0C867.66592 890.88 901.12 857.42592 901.12 816.32256L901.12 432.95744C901.12 391.85408 867.66592 358.4 826.56256 358.4zM860.16 816.32256C860.16 834.84672 845.08672 849.92 826.56256 849.92L217.91744 849.92C199.39328 849.92 184.32 834.84672 184.32 816.32256L184.32 432.95744C184.32 414.43328 199.39328 399.36 217.91744 399.36l608.64512 0C845.08672 399.36 860.16 414.43328 860.16 432.95744L860.16 816.32256z"></path><path d="M618.00448 614.4 552.96 614.4l0-21.21728 78.44864-93.184c7.28064-8.6528 6.17472-21.56544-2.47808-28.85632-8.64256-7.29088-21.57568-6.18496-28.85632 2.47808l-73.64608 87.48032-73.66656-87.48032c-7.31136-8.67328-20.23424-9.76896-28.85632-2.47808-8.6528 7.28064-9.75872 20.20352-2.47808 28.85632l89.344 106.0864c0.37888 0.45056 0.83968 0.77824 1.24928 1.18784L512.02048 614.4l-68.07552 0c-11.30496 0-20.48 9.17504-20.48 20.48s9.17504 20.48 20.48 20.48L512 655.36l0 30.72-47.59552 0c-11.30496 0-20.48 9.17504-20.48 20.48s9.17504 20.48 20.48 20.48L512 727.04l0 61.44c0 11.30496 9.17504 20.48 20.48 20.48s20.48-9.17504 20.48-20.48l0-61.44 44.56448 0c11.30496 0 20.48-9.17504 20.48-20.48s-9.17504-20.48-20.48-20.48L552.96 686.08l0-30.72 65.04448 0c11.30496 0 20.48-9.17504 20.48-20.48S629.30944 614.4 618.00448 614.4z"></path><path d="M225.28 317.44l624.64 0c11.30496 0 20.48-9.17504 20.48-20.48s-9.17504-20.48-20.48-20.48L225.28 276.48c-11.30496 0-20.48 9.17504-20.48 20.48S213.97504 317.44 225.28 317.44z"></path><path d="M296.96 235.52l471.04 0c11.30496 0 20.48-9.17504 20.48-20.48s-9.17504-20.48-20.48-20.48L296.96 194.56c-11.30496 0-20.48 9.17504-20.48 20.48S285.65504 235.52 296.96 235.52z" ></path></svg>