<svg viewBox="0 0 1024 1024"  xmlns="http://www.w3.org/2000/svg"  width="128" height="128"><path d="M256.18 228.82c28.256 0 51.162 23.068 51.162 51.484 0 28.445-22.906 51.487-51.162 51.487-28.252 0-51.16-23.043-51.16-51.487 0-28.416 22.908-51.485 51.16-51.485z m0 0M767.816 228.82c28.251 0 51.162 23.068 51.162 51.484 0 28.445-22.91 51.487-51.162 51.487-28.278 0-51.188-23.043-51.188-51.487-0.001-28.416 22.91-51.485 51.188-51.485z m0 0" ></path><path d="M870.136 975.377H153.864c-56.46 0-102.352-46.193-102.352-102.972v-720.81c0-56.779 45.892-102.972 102.352-102.972h716.272c56.43 0 102.352 46.193 102.352 102.973v720.81c0 56.778-45.924 102.97-102.352 102.97z m-716.272-875.27c-28.231 0-51.188 23.124-51.188 51.488v720.81c0 28.364 22.957 51.488 51.188 51.488h716.272c28.227 0 51.162-23.125 51.162-51.488v-720.81c0-28.363-22.935-51.487-51.162-51.487H153.864v-0.001z m0 0" ></path><path d="M511.985 563.47c-155.157 0-281.409-127.01-281.409-283.166 0-14.206 11.456-25.743 25.605-25.743 14.128 0 25.553 11.537 25.553 25.743 0 127.767 103.297 231.684 230.252 231.684S742.237 408.07 742.237 280.304c0-14.206 11.45-25.743 25.58-25.743 14.129 0 25.578 11.537 25.578 25.743 0 156.157-126.254 283.166-281.41 283.166z m0 0" ></path></svg>