<svg t="1625024637905" class="icon" viewBox="0 0 1024 1024" version="1.1" xmlns="http://www.w3.org/2000/svg" p-id="3339" width="128" height="128"><path d="M928.801316 750.890758c-1.286143 3.897279-21.388005 73.941976-70.781826 145.967004-42.750452 62.127454-86.955739 124.758936-156.771423 125.857985-68.657338 1.206398-90.629118-40.920408-169.018408-40.920408-78.289098 0-102.901662 39.822381-167.787473 42.126806-67.078798 2.740977-118.693208-67.865-161.605194-129.6929-87.699003-126.649301-155.22662-358.895233-64.66089-514.535914 44.556982-77.874015 124.64852-127.375184 211.864964-128.728804 65.724155-1.239113 128.25749 44.476215 168.176996 44.476215 41.011399 0 116.657667-55.318461 196.462941-47.040322 33.413136 1.422118 126.877289 13.9523 187.094954 101.135004-4.738691 3.221492-111.829008 66.351891-110.6359 194.836348C792.748246 699.484911 927.353639 750.361169 928.801316 750.890758M662.458281 165.313335c35.987467-43.850523 59.635935-104.12953 53.414806-163.991409-51.383355 2.015094-113.987233 34.086879-151.195411 77.679764-32.897861 38.030164-61.89333 99.247707-53.807397 158.414374C567.962555 240.878836 626.666087 207.550557 662.458281 165.313335" p-id="3340"></path></svg>


