<svg viewBox="0 0 1024 1024" xmlns="http://www.w3.org/2000/svg"  width="128" height="128"><path d="M941.8 171.6c-7.8-7.8-18.4-12-29.4-12H715.8l-4-15.8c-5.4-20.6-25.8-36.4-47.8-36.4h-55l-1.8-0.4c-5.6-1.2-11.4-5.8-14-10.8l-0.8-1.6-14.2-55.2C572.8 18.6 552.4 3 530.4 3H477c-22 0-42.4 15.6-47.6 36.4l-14.2 55.2-0.8 1.6c-2.6 5-8.4 9.6-14 10.8l-1.8 0.4H344c-22 0-42.4 15.6-47.6 36.4l-4 15.8H95.6C72.8 159.6 54 178 54 200.4v782c0 22.4 18.8 40.8 41.6 40.8h816.6c23 0 41.6-18.2 41.6-40.8v-782c0.2-10.8-4.2-21.2-12-28.8z m-613.6-28.2h58c29.8 0 57.6-19.8 64.8-48l16.8-59.8H540l15.2 56.8c7.2 28.2 35 49.6 64.8 49.6h58l16.4 67h-381l14.8-65.6zM924 993.8H84V189h198.2l-0.8 16.2c-0.4 8.4 2.2 16.6 7.2 22.8 6.6 8.4 17.2 13 28.8 13h373.4c11.6 0 22.2-4.8 28.8-13 5-6.4 7.6-14.4 7.2-22.8L726 189h198v804.8z" ></path><path d="M303.4 544h66.8c4.2 0 7.4 1.8 9 4.8 1.6 3 1 6.6-1.4 10-6.2 8.8-12.8 18.4-16.2 23.8 0.6 0.2 0.8 0.4 1.2 0.4l0.2-0.2c45.6 19.8 77.4 34.6 94.8 44.2 9.8-19.4 19-34.8 27-46-4-1.6-11.8-4.4-26.6-9.4h-0.2c-20.6-8.2-35.2-14.2-44.4-18.2l-21.2-9H628c4 0 7.4 1.6 9.2 4.4 2 2.8 2.4 6.6 1 10.2-0.4 1-8 21.6-16.2 38.6 25.8 3.8 47.4 9 64.6 15.6 6.2-17.6 18-63.6 25.4-92.2 1.6-6.4 3-12 4.2-16.2v-0.8c0-1.4-1.2-2.8-2.8-2.8H556.8c-7.6 0-13.6-6.2-13.6-13.6v-14.4c0-7.6 6.2-13.6 13.6-13.6H700c2.4 0 4.2-1.8 4.2-4.2V421c0-2.4-1.8-4.2-4.2-4.2H556.8c-7.8 0-13.6-4.2-13.6-9.8v-1.2l0.2-28.8c0-2.6-2.2-4.8-4.8-4.8h-52.2c-2.4 0-4.2 1.8-4.2 4.2v26.4c0 7.6-6.2 13.6-13.6 13.6H319.2c-2.4 0-4.2 1.8-4.2 4.2V455c0 2.4 1.8 4.2 4.2 4.2h149.4c7.6 0 13.6 6.2 13.6 13.6v14.4c0 7.6-6.2 13.6-13.6 13.6H303.2c-2.4 0-4.2 1.8-4.2 4.2v34.4c0.2 2.6 2 4.6 4.4 4.6z m410.2 249.2c-0.8-0.4-88.8-39.8-139.4-53.8l-32.4 37.4c-0.6 0.6-0.8 1.2-0.6 1.6 0 0.2 0.4 0.8 1.4 1 3.8 1.6 90.6 36.6 130.2 63.2l41.6-46.6c0.6-0.6 0.8-1.2 0.8-1.6-0.4-0.4-1-1-1.6-1.2z" ></path><path d="M720.8 680.4H573.4c-3.8 0-7.2-1.6-9.4-4.2-2.2-2.8-3.2-6.4-2.6-10 0-0.4 7.2-41.4 8.4-61 0-7.2 1.4-14.6 4.4-21.8l0.2-0.4c2.8-5.4 3.4-8.2 3.6-9.6-1-0.8-6.2-3.8-29.6-3.8H513c-2.4 0-4.2 1.8-4.2 4.2v12.4c0 5-0.2 13.2-0.4 18 0 0.2-1 23-3.6 45.8-1.4 11.8-2 20.4-2 25.6v4.8h-60.2c-6 0-8.2-3.4-9-4.8-0.6-1.4-1.8-5.2 2.2-9.8l10.6-12.6c0.6-0.8 0.8-1.4 0.8-2.2-0.2-0.6-0.6-1.2-1.4-1.6-0.4-0.2-35.4-18.8-88.2-43.8-3-0.8-5.6-1.6-7.4-2.4L320 637.6c-0.6 0.6-0.8 1.2-0.6 1.6 0.2 0.4 0.6 0.8 1.4 1.2 1.8 0.8 44.6 19.4 60.8 29l15.2 8.8H287.4c-2.4 0-4.2 1.8-4.2 4.2V719c0 2.4 1.8 4.2 4.2 4.2h169.4c6 0 8 2.6 8.6 4.8 0.6 2.2 0.2 5.4-5 8.4-3.4 2-82.6 47.2-163.4 57.4 20.2 15.8 33.2 31.6 39 47.6 102-16.2 173.6-55.2 212.4-116.2l1.4-2.2h171c2.4 0 4.2-1.8 4.2-4.2v-34.4c0-2.2-2-4-4.2-4z" ></path></svg>