<svg t="1625024943198" class="icon" viewBox="0 0 1024 1024" version="1.1" xmlns="http://www.w3.org/2000/svg" p-id="16242" width="128" height="128"><path d="M0.256 0l1023.488 1024V0H0.256z" p-id="16243"></path><path d="M563.456 109.568l-27.648 136.704 82.944-82.944a26.624 26.624 0 0 1 15.36-8.704 17.92 17.92 0 0 1 13.824 5.12 18.432 18.432 0 0 1 5.632 13.824 26.624 26.624 0 0 1-8.704 15.36l-110.08 110.08c-12.288 12.288-23.552 13.312-33.792 3.584a29.184 29.184 0 0 1-5.632-8.192 24.576 24.576 0 0 1 0-9.216 35.328 35.328 0 0 1 0-10.24 73.216 73.216 0 0 1 0-11.264l27.648-134.144-80.896 81.92a24.064 24.064 0 0 1-15.872 8.192 16.384 16.384 0 0 1-13.312-5.12 16.896 16.896 0 0 1-3.072-13.824 26.624 26.624 0 0 1 8.192-15.872L525.568 76.8a42.496 42.496 0 0 1 12.288-9.216 21.504 21.504 0 0 1 12.8 0 20.992 20.992 0 0 1 11.776 6.656 24.576 24.576 0 0 1 5.632 7.68 19.968 19.968 0 0 1 0 7.68 33.28 33.28 0 0 1 0 9.728c-4.608 3.072-4.608 6.656-4.608 10.24zM759.552 320l-64-64-33.792 34.816 58.368 58.368a16.384 16.384 0 0 1 6.656 12.288 12.8 12.8 0 0 1-4.096 10.752 11.776 11.776 0 0 1-10.752 4.608 17.408 17.408 0 0 1-12.8-6.656l-58.88-58.368-39.424 39.936 65.024 65.536a19.456 19.456 0 0 1 7.168 13.312 13.824 13.824 0 0 1-4.608 11.776 16.896 16.896 0 0 1-11.264 4.608 21.504 21.504 0 0 1-13.312-7.168l-76.8-76.288a26.624 26.624 0 0 1-9.216-17.408 25.6 25.6 0 0 1 9.216-17.408l102.4-102.4a27.648 27.648 0 0 1 11.776-8.192 14.336 14.336 0 0 1 11.264 0 33.792 33.792 0 0 1 11.264 7.68l74.752 74.752a19.456 19.456 0 0 1 7.168 12.8 12.8 12.8 0 0 1-4.608 11.264 13.312 13.312 0 0 1-11.264 4.608 20.992 20.992 0 0 1-10.24-9.216z m41.472 231.936l60.928-105.984-106.496 60.928-17.92 9.728a25.088 25.088 0 0 1-12.8 0 19.456 19.456 0 0 1-13.312-6.656 20.48 20.48 0 0 1-6.656-10.752 19.456 19.456 0 0 1 0-10.752 39.936 39.936 0 0 1 4.608-12.288l7.68-9.728 70.656-117.248a99.328 99.328 0 0 1 10.24-14.848 17.92 17.92 0 0 1 12.8-5.12 18.432 18.432 0 0 1 13.312 5.632 15.36 15.36 0 0 1 5.632 15.36 73.728 73.728 0 0 1-9.728 18.944l-62.976 102.4 96.256-55.808a120.832 120.832 0 0 1 17.408-11.776 26.112 26.112 0 0 1 13.824 0 27.648 27.648 0 0 1 22.528 22.016 36.352 36.352 0 0 1 0 13.312l-9.728 17.408-55.296 97.28 99.84-63.488 12.288-7.68a23.552 23.552 0 0 1 10.752-2.56 16.896 16.896 0 0 1 11.264 5.632 18.432 18.432 0 0 1 5.632 13.312 17.92 17.92 0 0 1-8.704 12.8 77.312 77.312 0 0 1-14.848 10.24l-116.736 71.168-17.92 10.24a28.16 28.16 0 0 1-13.312 0 20.48 20.48 0 0 1-13.824-7.168 23.04 23.04 0 0 1-7.168-13.312 20.48 20.48 0 0 1 0-12.8q5.12-7.168 11.776-18.432z" p-id="16244" fill="white" data-spm-anchor-id="a313x.7781069.0.i28" class="selected"></path></svg>