<svg viewBox="0 0 1024 1024" xmlns="http://www.w3.org/2000/svg" width="128" height="128"><path d="M999.645105 362.919583c-20.001714-22.085988-50.315098-34.774461-83.15155-34.774461H107.795369c-32.76332 0-63.11327 12.651907-83.114983 34.737895a95.072133 95.072133 0 0 0-22.817312 81.7986l84.394801 474.81217C97.154604 978.036281 155.733664 1023.853735 219.724522 1023.853735h584.766748c63.917726 0 122.496786-45.817455 133.503214-104.615912l84.321668-474.263676a95.072133 95.072133 0 0 0-22.671047-82.054564zM273.51341 620.857592c-43.513784 0-78.800171-32.799886-78.800172-73.13241s35.322954-73.13241 78.800172-73.13241c43.404085 0 78.727039 32.799886 78.727039 73.13241 0 40.295958-35.322954 73.13241-78.727039 73.13241z m474.848736 0c-43.440651 0-78.763605-32.799886-78.763606-73.13241s35.322954-73.13241 78.763606-73.13241 78.763605 32.799886 78.763605 73.13241c0 40.295958-35.322954 73.13241-78.763605 73.13241z m-511.926868-328.766748c21.756892 0 39.381803-16.38166 39.381803-36.566205C275.817081 141.364948 394.91321 73.13241 510.023622 73.13241c112.550778 0 238.411655 78.178546 238.411656 182.831024 0 20.184545 17.551778 36.566205 39.345236 36.566205 21.793458 0 39.381803-16.38166 39.418369-36.566205 0-150.835595-167.107556-255.963434-317.138694-255.963434-153.87059 0-313.006713 95.584059-313.006714 255.524639 0 20.184545 17.661477 36.566205 39.381803 36.566205z"></path></svg>