<svg viewBox="0 0 1024 1024" xmlns="http://www.w3.org/2000/svg"  width="128" height="128"><path d="M50.995 413.286a110.592 110.592 0 0 1 109.159-102.4h749.772a112.435 112.435 0 0 1 109.364 102.4s4.71 53.658 4.71 83.559v422.707A102.4 102.4 0 0 1 923.648 1024H158.106a157.491 157.491 0 0 1-136.602-97.485l-6.758-15.974z"  ></path><path d="M104.038 311.706h758.99a103.424 103.424 0 0 1 104.038 102.4v462.233a103.629 103.629 0 0 1-104.039 103.424H104.038A106.7 106.7 0 0 1 0 874.291V414.925a102.4 102.4 0 0 1 104.038-102.4z"  ></path><path d="M7.782 468.787h959.284v141.107H7.782zM126.976 742.81h268.493v79.257H126.976z"  ></path><path d="M491.52 9.626L300.646 198.86a30.925 30.925 0 0 0 21.504 52.838h92.775a31.334 31.334 0 0 1 31.13 31.13v189.235a31.54 31.54 0 0 0 31.334 31.334h71.065a31.54 31.54 0 0 0 31.335-31.334V282.829a31.334 31.334 0 0 1 31.13-31.13h93.798a30.72 30.72 0 0 0 20.48-52.838L535.757 8.6a32.154 32.154 0 0 0-44.237 1.025z"  ></path><path d="M469.402 24.371L279.347 213.606a30.72 30.72 0 0 0 20.48 52.634h92.775a31.334 31.334 0 0 1 31.13 31.334V486.81a31.334 31.334 0 0 0 31.334 31.13h71.27a31.334 31.334 0 0 0 31.13-31.13V297.574a31.54 31.54 0 0 1 31.948-31.334h93.799a30.72 30.72 0 0 0 20.48-52.634L514.458 23.347a32.358 32.358 0 0 0-45.056 1.024z"  ></path></svg>