<?xml version="1.0" standalone="no"?><!DOCTYPE svg PUBLIC "-//W3C//DTD SVG 1.1//EN" "http://www.w3.org/Graphics/SVG/1.1/DTD/svg11.dtd"><svg t="1641516439722" class="icon" viewBox="0 0 1024 1024" version="1.1" xmlns="http://www.w3.org/2000/svg" p-id="3817" xmlns:xlink="http://www.w3.org/1999/xlink" width="200" height="200"><defs><style type="text/css"></style></defs><path d="M168.7 282.2h686.6v534c0 40.5-16.1 79.2-44.7 107.9a152.59 152.59 0 0 1-107.9 44.7H321.2c-84.2 0-152.6-68.3-152.6-152.6v-534z m76.2 0v534c0 20.2 8.1 39.7 22.3 53.9 14.3 14.3 33.7 22.3 53.9 22.3h381.4c20.2 0 39.7-8.1 53.9-22.3 14.3-14.3 22.3-33.7 22.3-53.9v-534H244.9z m0 0" p-id="3818"></path><path d="M588.2 434.8c-25.4 0-38.2 12.8-38.2 38.2v228.8c0 25.4 12.8 38.2 38.2 38.2s38.2-12.8 38.2-38.2V472.9c-0.1-25.5-12.7-38.1-38.2-38.1z m-152.5 0c-25.4 0-38.2 12.8-38.2 38.2v228.8c0 25.4 12.8 38.2 38.2 38.2 25.4 0 38.2-12.8 38.2-38.2V472.9c-0.1-25.5-12.8-38.1-38.2-38.1z m457.6-228.9H702.6v-76.2c0-20.2-8.1-39.7-22.3-53.9-14.3-14.3-33.7-22.3-53.9-22.3H397.5c-42.1 0-76.2 34.1-76.2 76.2v76.2H130.5c-23.8 0-36.5 11.2-38 33.5v9.4c1.5 22.3 14.1 33.5 38 33.5h762.8c25.4 0 38.2-12.8 38.2-38.2 0-25.5-12.7-38.2-38.2-38.2z m-495.8 0v-53.4c0-6.1 2.4-11.9 6.7-16.2 4.3-4.3 10.1-6.7 16.2-6.7h183.1c12.7 0 22.9 10.2 22.9 22.9v53.4H397.5z m0 0" p-id="3819"></path></svg>