<?xml version="1.0" standalone="no"?><!DOCTYPE svg PUBLIC "-//W3C//DTD SVG 1.1//EN" "http://www.w3.org/Graphics/SVG/1.1/DTD/svg11.dtd"><svg t="1641516434341" class="icon" viewBox="0 0 1024 1024" version="1.1" xmlns="http://www.w3.org/2000/svg" p-id="3686" xmlns:xlink="http://www.w3.org/1999/xlink" width="200" height="200"><defs><style type="text/css"></style></defs><path d="M854.5 396.1c-11.7-6.7-26.1-6.7-37.8 0-11.6 6.7-18.9 19.3-18.9 32.7v323.3c0 21.3-8.3 41.3-23.4 56.4-15.1 15.1-35.1 23.4-56.4 23.4H247.8c-21.3 0-41.3-8.3-56.4-23.4-15.1-15.1-23.4-35.1-23.4-56.4V281.9c0-21.3 8.3-41.3 23.4-56.4 15.1-15.1 35.1-23.4 56.4-23.4h323.3c20.8 0 37.8-16.9 37.8-37.8 0-20.8-16.9-37.8-37.8-37.8H247.8c-41.5 0-80.5 16.2-109.8 45.5-29.3 29.3-45.5 68.3-45.5 109.8V752c0 41.5 16.2 80.5 45.5 109.8 29.3 29.3 68.3 45.5 109.8 45.5H718c41.5 0 80.5-16.2 109.8-45.5 29.3-29.3 45.5-68.3 45.5-109.8V428.9c0.1-13.5-7.2-26-18.8-32.8z" p-id="3687"></path><path d="M418.5 560.9c5.9 14.1 19.6 23.3 34.9 23.3h0.3c10-0.1 19.4-4.2 26.4-11.3l382-382 0.4-0.5c12.8-14.9 11.9-37.4-2-51.3-13.9-13.9-36.4-14.7-51.3-2l-0.2 0.2-382.2 382.3c-11 10.9-14.2 27.1-8.3 41.3z" p-id="3688"></path></svg>