<svg xmlns="http://www.w3.org/2000/svg" xmlns:xlink="http://www.w3.org/1999/xlink" width="20" height="15.562" viewBox="0 0 20 15.562"><defs><style>.a{fill:#329d69;}.b{clip-path:url(#a);}</style><clipPath id="a"><rect class="a" width="20" height="15.562"/></clipPath></defs><g transform="translate(-84 -159)"><g transform="translate(84 159)"><g class="b" transform="translate(0 0)"><path class="a" d="M103.165,173.146h-.65a5.644,5.644,0,0,0,.35-2.223,9.055,9.055,0,0,0-7.319-9.093,2.165,2.165,0,0,0,.125-.7v-.175a1.923,1.923,0,1,0-3.847,0v.175a2.165,2.165,0,0,0,.125.7,9.084,9.084,0,0,0-7.294,9.118,6.333,6.333,0,0,0,.325,2.223h-.4a.7.7,0,1,0,0,1.4h18.585a.7.7,0,0,0,.7-.7.72.72,0,0,0-.7-.725Zm-9.942-12.19a.525.525,0,1,1,1.049,0v.175a.525.525,0,1,1-1.049,0Zm.525,2.1a7.7,7.7,0,0,1,7.669,7.169H86.1a7.675,7.675,0,0,1,7.644-7.169Zm-7.119,10.092a2.263,2.263,0,0,1-.55-1.524h15.338a2.206,2.206,0,0,1-.55,1.524Zm0,0" transform="translate(-83.883 -159.031)"/></g></g></g></svg>