<?xml version="1.0" standalone="no"?><!DOCTYPE svg PUBLIC "-//W3C//DTD SVG 1.1//EN" "http://www.w3.org/Graphics/SVG/1.1/DTD/svg11.dtd"><svg t="1641516421626" class="icon" viewBox="0 0 1024 1024" version="1.1" xmlns="http://www.w3.org/2000/svg" p-id="3425" xmlns:xlink="http://www.w3.org/1999/xlink" width="200" height="200"><defs><style type="text/css"></style></defs><path d="M903.63 763.92V431.95c0-46.89-22.47-90.35-58.56-113.38l-255.4-175.59c-44.54-30.84-106.59-30.91-154.45-0.14L179.68 318.52c-36.72 23.42-58.63 64.63-58.63 110.24v335.38c0 75.74 61.62 137.36 137.36 137.36h511.06c36.92 0 72.63-15.22 97.98-41.75 24.89-26.06 37.74-60.09 36.18-95.83z m-63.91-335.17v335.38c0 39.4-30.86 70.26-70.25 70.26H258.41c-39.39 0-70.25-30.86-70.25-70.26V431.95c0-24.58 10.45-44.51 31.04-59.22l255.56-178.89 0.22-0.16c10.73-8.04 24.56-12.47 38.96-12.47 14.4 0 28.24 4.43 38.96 12.47l0.12 0.09 255.64 175.76c19.44 13.91 31.06 36.05 31.06 59.22z" p-id="3426"></path><path d="M587.4 626.78H443.66c-21.35 0-35.15 13.8-35.15 35.15 0 22 17.87 35.15 35.15 35.15H587.4c22 0 35.15-17.87 35.15-35.15 0-22.01-17.87-35.15-35.15-35.15z" p-id="3427"></path></svg>