<?xml version="1.0" standalone="no"?><!DOCTYPE svg PUBLIC "-//W3C//DTD SVG 1.1//EN" "http://www.w3.org/Graphics/SVG/1.1/DTD/svg11.dtd"><svg t="1650353719710" class="icon" viewBox="0 0 1024 1024" version="1.1" xmlns="http://www.w3.org/2000/svg" p-id="5408" xmlns:xlink="http://www.w3.org/1999/xlink" width="200" height="200"><defs><style type="text/css">@font-face { font-family: feedback-iconfont; src: url("//at.alicdn.com/t/font_1031158_u69w8yhxdu.woff2?t=1630033759944") format("woff2"), url("//at.alicdn.com/t/font_1031158_u69w8yhxdu.woff?t=1630033759944") format("woff"), url("//at.alicdn.com/t/font_1031158_u69w8yhxdu.ttf?t=1630033759944") format("truetype"); }
</style></defs><path d="M472.477045 982.932651l-259.760346-259.760346-11.296642-11.296642a423.530444 423.530444 0 1 1 621.190468 0L551.553537 982.932651l-39.50704 39.507039z m39.50704-39.50704l259.760346-259.760346a362.491132 362.491132 0 0 0 107.28689-259.760346 367.047236 367.047236 0 1 0-734.156884 0 358.184677 358.184677 0 0 0 101.669775 254.143231z m0-321.860669a197.660023 197.660023 0 1 1 197.660023-197.660023 200.094106 200.094106 0 0 1-197.660023 197.660023z m0-56.171147a141.176815 141.176815 0 1 0-141.176815-141.176814 139.803742 139.803742 0 0 0 141.176815 141.176814z m0 0" p-id="5409"></path></svg>