<?xml version="1.0" standalone="no"?><!DOCTYPE svg PUBLIC "-//W3C//DTD SVG 1.1//EN" "http://www.w3.org/Graphics/SVG/1.1/DTD/svg11.dtd"><svg t="1641516412771" class="icon" viewBox="0 0 1024 1024" version="1.1" xmlns="http://www.w3.org/2000/svg" p-id="3294" xmlns:xlink="http://www.w3.org/1999/xlink" width="200" height="200"><defs><style type="text/css"></style></defs><path d="M627.35 495.36H395.87c-20 0-36.21-16.21-36.21-36.21s16.21-36.21 36.21-36.21h231.48c20 0 36.21 16.21 36.21 36.21-0.01 20-16.22 36.21-36.21 36.21zM597.96 224.21h-172.7c-17.64 0-31.95-14.3-31.95-31.95v-8.52c0-17.64 14.3-31.95 31.95-31.95h172.7c17.64 0 31.95 14.3 31.95 31.95v8.52c-0.01 17.65-14.31 31.95-31.95 31.95zM627.35 636.81H395.87c-20 0-36.21-16.21-36.21-36.21s16.21-36.21 36.21-36.21h231.48c20 0 36.21 16.21 36.21 36.21-0.01 20-16.22 36.21-36.21 36.21z" p-id="3295"></path><path d="M709.2 151.8h-10.64c-19.33 0-35 15.67-35 35s15.67 35 35 35h10.64c29.56 0 53.52 23.96 53.52 53.52v491.72c0 29.56-23.96 53.52-53.52 53.52H314.02c-29.56 0-53.52-23.96-53.52-53.52V275.32c0-29.56 23.96-53.52 53.52-53.52h10.64c19.33 0 35-15.67 35-35s-15.67-35-35-35h-10.64c-68.22 0-123.52 55.3-123.52 123.52v491.72c0 68.22 55.3 123.52 123.52 123.52H709.2c68.22 0 123.52-55.3 123.52-123.52V275.32c-0.01-68.22-55.31-123.52-123.52-123.52z" p-id="3296"></path></svg>