<?xml version="1.0" standalone="no"?><!DOCTYPE svg PUBLIC "-//W3C//DTD SVG 1.1//EN" "http://www.w3.org/Graphics/SVG/1.1/DTD/svg11.dtd"><svg t="1641516099546" class="icon" viewBox="0 0 1024 1024" version="1.1" xmlns="http://www.w3.org/2000/svg" p-id="2770" xmlns:xlink="http://www.w3.org/1999/xlink" width="200" height="200"><defs><style type="text/css"></style></defs><path d="M450.23 509.51H323.26c-20 0-36.21-16.21-36.21-36.21s16.21-36.21 36.21-36.21h126.97c20 0 36.21 16.21 36.21 36.21s-16.21 36.21-36.21 36.21zM554.74 648.96H323.26c-20 0-36.21-16.21-36.21-36.21s16.21-36.21 36.21-36.21h231.48c20 0 36.21 16.21 36.21 36.21-0.01 20-16.22 36.21-36.21 36.21zM848.98 211.98L626.19 434.77c-14.14 14.14-37.06 14.14-51.2 0s-14.14-37.06 0-51.2l222.79-222.79c14.14-14.14 37.06-14.14 51.2 0 14.13 14.14 14.13 37.06 0 51.2z" p-id="2771"></path><path d="M719.36 895.71h-468.3c-48.02 0-86.95-38.93-86.95-86.95V237.13c0-48.02 38.93-86.95 86.95-86.95h351.55c20.02 0 36.26 16.23 36.26 36.26 0 20.02-16.23 36.26-36.26 36.26H251.05c-7.97 0-14.44 6.46-14.44 14.44v571.63c0 7.97 6.46 14.44 14.44 14.44h468.3c7.97 0 14.44-6.46 14.44-14.44V416.43c0-20.02 16.23-36.26 36.26-36.26 20.02 0 36.26 16.23 36.26 36.26v392.33c0 48.02-38.93 86.95-86.95 86.95z" p-id="2772"></path></svg>