<?xml version="1.0" standalone="no"?><!DOCTYPE svg PUBLIC "-//W3C//DTD SVG 1.1//EN" "http://www.w3.org/Graphics/SVG/1.1/DTD/svg11.dtd"><svg t="1640853214875" class="icon" viewBox="0 0 1024 1024" version="1.1" xmlns="http://www.w3.org/2000/svg" p-id="1112" xmlns:xlink="http://www.w3.org/1999/xlink" width="200" height="200"><defs><style type="text/css"></style></defs><path d="M798.81 757.1c0 12.18-9.88 22.07-22.07 22.07-12.18 0-22.07-9.88-22.07-22.07v-11.95c0-55.35-112.59-133.55-241.89-133.55-102.79 0-243.72 65.92-243.72 131.34v14.15c0 12.18-9.89 22.07-22.07 22.07-12.19 0-22.07-9.88-22.07-22.07v-27.77c0-33.08 49.12-118.14 183.28-149.75-48.45-33.13-80.27-88.79-80.27-151.9 0-101.59 82.35-183.95 183.94-183.95 101.58 0 183.94 82.36 183.94 183.95 0 62.07-30.84 116.86-77.94 150.16 135.6 30.35 180.93 119.77 180.93 151.5 0.01 14.38 0.01 25.17 0.01 27.77zM651.66 427.67c0-77.2-62.58-139.79-139.79-139.79s-139.79 62.59-139.79 139.79c0 77.21 62.58 139.79 139.79 139.79 77.2 0 139.79-62.58 139.79-139.79z m0 0" p-id="1113"></path></svg>