<?xml version="1.0" standalone="no"?><!DOCTYPE svg PUBLIC "-//W3C//DTD SVG 1.1//EN" "http://www.w3.org/Graphics/SVG/1.1/DTD/svg11.dtd"><svg t="1644832591135" class="icon" viewBox="0 0 1024 1024" version="1.1" xmlns="http://www.w3.org/2000/svg" p-id="1922" xmlns:xlink="http://www.w3.org/1999/xlink" width="200" height="200"><defs><style type="text/css"></style></defs><path d="M792.71 409.61c42.85 0 77.59-34.38 77.59-76.8v-102.4c0-42.42-34.74-76.8-77.59-76.8H231.09c-42.86 0-77.59 34.38-77.59 76.8v102.4c0 42.42 34.74 76.8 77.59 76.8H358.3v102.4c0 14.14 11.46 25.6 25.6 25.6h230.4v76.8H231.09c-42.86 0-77.59 34.38-77.59 76.8v102.4c0 42.42 34.74 76.8 77.59 76.8H792.7c42.85 0 77.59-34.38 77.59-76.8v-102.4c0-42.42-34.74-76.8-77.59-76.8H665.5v-102.4c0-14.14-11.46-25.6-25.6-25.6H409.5v-76.8h383.21z m0 256c14.29 0 25.85 11.47 25.85 25.6v102.4c0 14.13-11.57 25.6-25.85 25.6H231.09c-14.29 0-25.86-11.47-25.86-25.6v-102.4c0-14.13 11.57-25.6 25.86-25.6h561.62z m-587.47-332.8v-102.4c0-14.13 11.57-25.6 25.86-25.6h561.61c14.29 0 25.85 11.47 25.85 25.6v102.4c0 14.13-11.57 25.6-25.85 25.6H231.09c-14.28 0-25.85-11.47-25.85-25.6z m0 0" p-id="1923"></path><path d="M358.3 768.01h307.2c14.14 0 25.6-11.46 25.6-25.6s-11.47-25.6-25.6-25.6H358.3c-14.14 0-25.6 11.46-25.6 25.6s11.46 25.6 25.6 25.6z m332.8-486.4c0-14.14-11.47-25.6-25.6-25.6H358.3c-14.14 0-25.6 11.46-25.6 25.6s11.46 25.6 25.6 25.6h307.2c14.14 0 25.6-11.46 25.6-25.6z m0 0" p-id="1924"></path></svg>