<?xml version="1.0" standalone="no"?><!DOCTYPE svg PUBLIC "-//W3C//DTD SVG 1.1//EN" "http://www.w3.org/Graphics/SVG/1.1/DTD/svg11.dtd"><svg t="1641350749415" class="icon" viewBox="0 0 1024 1024" version="1.1" xmlns="http://www.w3.org/2000/svg" p-id="1957" xmlns:xlink="http://www.w3.org/1999/xlink" width="200" height="200"><defs><style type="text/css"></style></defs><path d="M766.6 237.7H257.4c-25.8 0-46.9 21-46.9 46.9v370.8c0 25.8 21 46.9 46.9 46.9h234.9c-0.2 1-0.3 2.1-0.3 3.2V746H320.8c-11 0-20 9-20 20s9 20 20 20h382.4c11 0 20-9 20-20s-9-20-20-20H532v-40.5c0-1.1-0.1-2.2-0.3-3.2h234.9c25.8 0 46.9-21 46.9-46.9V284.6c0-25.9-21-46.9-46.9-46.9z m6.9 417.7c0 3.7-3.1 6.9-6.9 6.9H257.4c-3.7 0-6.9-3.1-6.9-6.9V284.6c0-3.7 3.1-6.9 6.9-6.9h509.2c3.7 0 6.9 3.1 6.9 6.9v370.8z m0 0" p-id="1958"></path></svg>