<?xml version="1.0" standalone="no"?><!DOCTYPE svg PUBLIC "-//W3C//DTD SVG 1.1//EN" "http://www.w3.org/Graphics/SVG/1.1/DTD/svg11.dtd"><svg t="1641350741329" class="icon" viewBox="0 0 1024 1024" version="1.1" xmlns="http://www.w3.org/2000/svg" p-id="1829" xmlns:xlink="http://www.w3.org/1999/xlink" width="200" height="200"><defs><style type="text/css"></style></defs><path d="M511.74 893.87c-191.15-0.36-352.61-141.94-377.95-331.4-2.06-15.43 8.78-29.6 24.2-31.65 15.43-2.05 29.6 8.78 31.65 24.2C211 716.91 349.01 837.92 512.3 837.92c163.3 0 301.31-121.01 322.65-282.9 2.06-15.42 16.23-26.26 31.65-24.2 15.42 2.05 26.26 16.23 24.2 31.65-25.38 189.88-187.48 331.6-379.06 331.4z m347.42-418.91c-13.48 0.03-25.02-9.63-27.37-22.9-28.89-154-163.36-265.58-320.05-265.58-156.68 0-291.15 111.58-320.05 265.58-3.1 14.82-17.46 24.47-32.36 21.74-14.9-2.73-24.91-16.83-22.56-31.79 33.79-180.48 191.35-311.28 374.97-311.28 183.61 0 341.18 130.8 374.97 311.28a27.941 27.941 0 0 1-22.34 32.96c-1.73 0.17-3.48 0.17-5.21-0.01z m0 0" p-id="1830"></path><path d="M859.16 474.96c-15.43 0-27.93-12.5-27.93-27.93V298.09c0-15.43 12.5-27.93 27.93-27.93 15.42 0 27.93 12.5 27.93 27.93v148.94c0 15.43-12.51 27.93-27.93 27.93zM161.35 735.62c-15.42 0-27.93-12.5-27.93-27.93V558.74c0-15.42 12.5-27.93 27.93-27.93s27.93 12.5 27.93 27.93v148.95c0 15.42-12.5 27.93-27.93 27.93z m0 0" p-id="1831"></path></svg>