<?xml version="1.0" standalone="no"?><!DOCTYPE svg PUBLIC "-//W3C//DTD SVG 1.1//EN" "http://www.w3.org/Graphics/SVG/1.1/DTD/svg11.dtd"><svg t="1654136020673" class="icon" viewBox="0 0 1024 1024" version="1.1" xmlns="http://www.w3.org/2000/svg" p-id="4517" xmlns:xlink="http://www.w3.org/1999/xlink" width="200" height="200"><defs><style type="text/css">@font-face { font-family: feedback-iconfont; src: url("//at.alicdn.com/t/font_1031158_u69w8yhxdu.woff2?t=1630033759944") format("woff2"), url("//at.alicdn.com/t/font_1031158_u69w8yhxdu.woff?t=1630033759944") format("woff"), url("//at.alicdn.com/t/font_1031158_u69w8yhxdu.ttf?t=1630033759944") format("truetype"); }
</style></defs><path d="M778.2 688.6h-93.7c-5.4 0-10.5-2.1-14.3-5.9-3.8-3.8-5.9-8.9-5.9-14.3l-0.2-238.3c-3.2-81.9-70.5-146.7-152.5-146.7s-149.3 64.8-152.5 146.7v206.8s26.1 90.2 88.3 79.7c5-13.4 17.9-22.1 32.2-21.7h65.6c22.3 0 40.5 18.1 40.5 40.5v12.7c0 10.7-4.3 21-11.9 28.6-7.6 7.6-17.9 11.9-28.6 11.9h-60.3c-16.7-0.1-31.6-10.3-37.6-25.8-1-0.6-9.1 0-17-1.5-36.9-13.4-68-39-88.3-72.7-1 0.2-2.1 0.3-3.2 0.3h-93.4c-11.2 0-20.2-9.1-20.2-20.2V461c0-5.4 2.1-10.5 5.9-14.3 3.8-3.8 8.9-5.9 14.3-5.9h66.8V430c2.4-193.8 196.4-194.5 196.4-194.5h6.6s194 0.7 196.4 194.5v10.8h66.8c5.4 0 10.5 2.1 14.3 5.9 3.8 3.8 5.9 8.9 5.9 14.3v207.4c0 11.2-9.1 20.2-20.2 20.2h-0.2zM316.3 500c0-6.9-3.9-12.5-8.2-12.5h-34.5c-4.5 0-8.2 5.6-8.2 12.5v127.7c0 7 3.9 12.5 8.2 12.5h34.5c4.5 0 8.2-5.6 8.2-12.5V500z m441.9 0c0-6.9-3.9-12.5-8.2-12.5h-34.5c-4.5 0-8.3 5.6-8.3 12.5v127.7c0 7 3.9 12.5 8.3 12.5H750c4.5 0 8.2-5.6 8.2-12.5V500z m0 0" p-id="4518"></path></svg>