<svg xmlns="http://www.w3.org/2000/svg" xmlns:xlink="http://www.w3.org/1999/xlink" width="20" height="24.547" viewBox="0 0 20 24.547"><defs><style>.a{fill:#329d69;}.b{fill:none;}.c{fill:#fff;}.d{clip-path:url(#a);}.e{clip-path:url(#b);}</style><clipPath id="a"><rect class="a" width="20" height="24.547"/></clipPath><clipPath id="b"><rect class="b" width="20" height="24.547"/></clipPath></defs><g transform="translate(-232 -507.932)"><path class="c" d="M306.707,303.2h4.361a16.356,16.356,0,0,0-.394,2.06c0,.465.036,1.215.036,1.215l-3.753.107Zm0,0" transform="translate(-71.708 209.833)"/><g transform="translate(232 507.932)"><g class="d" transform="translate(0 0)"><path class="a" d="M224.68,393.764a27.775,27.775,0,0,1-3.31-.175c-1.13-.145-1.784-.339-1.784-.914v-.033c0-.027.186-2.747.457-5.009a12.2,12.2,0,0,1,1.589-4.473l.927-1.48v1.562a8.587,8.587,0,0,0,4.279,0v-1.51l.925,1.422a11.789,11.789,0,0,1,1.606,4.793c.271,2.621.4,4.678.4,4.7v.033c0,.574-.654.769-1.784.914a29.116,29.116,0,0,1-3.31.17Zm-4.071-1.335a25.2,25.2,0,0,0,8.141,0c-.044-.646-.169-2.339-.383-4.38a11.2,11.2,0,0,0-1.176-3.865,3.323,3.323,0,0,1-.514.15,10.765,10.765,0,0,1-3.956,0,3.567,3.567,0,0,1-.511-.148,10.949,10.949,0,0,0-1.171,3.567c-.213,1.811-.375,3.926-.429,4.675Zm0,0" transform="translate(-219.773 -372.446)"/><path class="a" d="M224.113,298.2a9.888,9.888,0,0,1-4.634-.868.466.466,0,0,1-.208-.242c-.025-.065-.583-1.663-.025-7.1.372-3.627,1.28-5.022,1.879-5.945a2.073,2.073,0,0,0,.473-1.07,8.419,8.419,0,0,0-.46-2.64.451.451,0,0,1,.32-.58.514.514,0,0,1,.635.29,9.224,9.224,0,0,1,.512,2.95,2.825,2.825,0,0,1-.616,1.517c-.555.853-1.393,2.14-1.743,5.562a23.089,23.089,0,0,0-.063,6.56,10.109,10.109,0,0,0,3.928.645,11.74,11.74,0,0,0,3.937-.667,23.506,23.506,0,0,0-.071-6.54c-.345-3.422-1.185-4.71-1.74-5.562a2.811,2.811,0,0,1-.615-1.517,9.1,9.1,0,0,1,.512-2.95.514.514,0,0,1,.635-.29.451.451,0,0,1,.317.58,8.4,8.4,0,0,0-.46,2.64,2.067,2.067,0,0,0,.473,1.068c.6.923,1.516,2.318,1.879,5.95.55,5.462.033,6.96-.027,7.112a.48.48,0,0,1-.254.257,12.268,12.268,0,0,1-4.585.842Zm0,0" transform="translate(-219 -273.684)"/></g></g><g transform="translate(232 507.932)"><g class="e" transform="translate(0 0)"><path class="c" d="M563.6,536.881l1.094,9.542a.776.776,0,0,1-.473.8,10.874,10.874,0,0,1-6.96,0,.773.773,0,0,1-.473-.8l1.094-9.542" transform="translate(-545.235 -523.788)"/><path class="a" d="M546.524,534.062a9.57,9.57,0,0,1-3.674-.61,1.286,1.286,0,0,1-.78-1.327l1.094-9.542a.5.5,0,0,1,1,.112l-1.094,9.542a.272.272,0,0,0,.167.282,10.4,10.4,0,0,0,6.576,0,.274.274,0,0,0,.167-.282l-1.094-9.542a.5.5,0,0,1,1-.112l1.094,9.542a1.286,1.286,0,0,1-.78,1.327,9.569,9.569,0,0,1-3.674.61Zm0,0" transform="translate(-531.015 -509.548)"/></g></g><path class="a" d="M272.2,176.527a11.614,11.614,0,0,1-2.156-.181c-.375-.077-1.256-.252-1.256-.908v-3.414a.5.5,0,0,1,1.007,0v3.214a7.821,7.821,0,0,0,2.407.282,7.911,7.911,0,0,0,2.407-.282v-3.214a.5.5,0,0,1,1.007,0v3.411c0,.654-.881.831-1.256.908a11.471,11.471,0,0,1-2.161.183Zm.022,4.864a9.308,9.308,0,0,1-1.945-.181c-.452-.1-1.051-.287-1.051-.758a.352.352,0,0,1,.689-.1,8.072,8.072,0,0,0,4.612,0,.352.352,0,0,1,.689.1c0,.47-.6.659-1.05.758a9.327,9.327,0,0,1-1.945.181Zm0,0" transform="translate(-35.083 338.602)"/><path class="a" d="M577.589,434.769a12.07,12.07,0,0,1-2.115-.164c-.375-.068-1.247-.233-1.247-.87v-3.151a.5.5,0,0,1,1.007,0v2.927a8.489,8.489,0,0,0,2.358.252,8.6,8.6,0,0,0,2.358-.252v-2.927a.5.5,0,0,1,1.007,0v3.149c0,.637-.875.8-1.247.87a11.91,11.91,0,0,1-2.12.167Zm0,0" transform="translate(-330.08 87.292)"/><path class="a" d="M272.147,156.423a11.047,11.047,0,0,1-2.123-.183c-.339-.068-1.239-.254-1.239-.908s.9-.837,1.239-.908a12.388,12.388,0,0,1,4.246,0c.339.068,1.239.254,1.239.908s-.9.837-1.239.908a10.8,10.8,0,0,1-2.123.183Zm-1.436-1.089a12.252,12.252,0,0,0,2.878,0,11.389,11.389,0,0,0-1.439-.085,11.946,11.946,0,0,0-1.439.085Zm0,0" transform="translate(-35.083 354.7)"/><path class="a" d="M577.589,414.345a11.04,11.04,0,0,1-2.123-.183c-.339-.068-1.239-.254-1.239-.908s.9-.837,1.239-.908a12.387,12.387,0,0,1,4.246,0c.339.068,1.239.254,1.239.908s-.9.837-1.239.908a10.822,10.822,0,0,1-2.123.183Zm-1.439-1.089a12.263,12.263,0,0,0,2.878,0,12.245,12.245,0,0,0-2.878,0Zm0,0" transform="translate(-330.08 104.598)"/></g></svg>