<?xml version="1.0" standalone="no"?><!DOCTYPE svg PUBLIC "-//W3C//DTD SVG 1.1//EN" "http://www.w3.org/Graphics/SVG/1.1/DTD/svg11.dtd"><svg t="1646040744973" class="icon" viewBox="0 0 1024 1024" version="1.1" xmlns="http://www.w3.org/2000/svg" p-id="2792" xmlns:xlink="http://www.w3.org/1999/xlink" width="200" height="200"><defs><style type="text/css"></style></defs><path d="M826.4 132.6H196.9c-34.7 0-62.9 30.5-62.9 68.2v623c0 37.7 28.2 68.2 62.9 68.2h629.5c34.7 0 62.9-30.5 62.9-68.2v-623c0-37.7-28.2-68.2-62.9-68.2z m0 675.2c0 14.6-11.8 26.5-26.5 26.5H223.4c-14.6 0-26.5-11.8-26.5-26.5V227.2c0-14.6 11.8-26.5 26.5-26.5h576.5c14.6 0 26.5 11.8 26.5 26.5v580.6z" p-id="2793"></path><path d="M669 326.6c-17.4 0-31.5 14.1-31.5 31.5v34.1c0 68-56.3 123.2-125.9 123.2-69.6 0-125.9-55.1-125.9-123.2v-34-0.1c0-17.4-14.1-31.5-31.5-31.5s-31.5 14.1-31.5 31.5V389.5C322.7 489.9 401.1 572 500 578c108.9 6.5 200.3-81.4 200.3-190.6v-29.2-0.1c0.2-17.4-13.9-31.5-31.3-31.5z" p-id="2794"></path></svg>