<?xml version="1.0" standalone="no"?><!DOCTYPE svg PUBLIC "-//W3C//DTD SVG 1.1//EN" "http://www.w3.org/Graphics/SVG/1.1/DTD/svg11.dtd"><svg t="1641516426741" class="icon" viewBox="0 0 1024 1024" version="1.1" xmlns="http://www.w3.org/2000/svg" p-id="3556" xmlns:xlink="http://www.w3.org/1999/xlink" width="200" height="200"><defs><style type="text/css"></style></defs><path d="M237.68 293.26c0-30.19 24.48-54.67 54.67-54.67h34.17c19.33 0 35-15.67 35-35s-15.67-35-35-35h-34.17c-68.85 0-124.67 55.82-124.67 124.67v34.17c0 19.33 15.67 35 35 35s35-15.67 35-35v-34.17zM730.7 238.59c30.19 0 54.67 24.48 54.67 54.67v34.17c0 19.33 15.67 35 35 35s35-15.67 35-35v-34.17c0-68.85-55.82-124.67-124.67-124.67h-34.17c-19.33 0-35 15.67-35 35s15.67 35 35 35h34.17zM292.35 786.28c-30.19 0-54.67-24.48-54.67-54.67v-34.17c0-19.33-15.67-35-35-35s-35 15.67-35 35v34.17c0 68.85 55.82 124.67 124.67 124.67h34.17c19.33 0 35-15.67 35-35s-15.67-35-35-35h-34.17zM785.36 731.61c0 30.19-24.48 54.67-54.67 54.67h-34.17c-19.33 0-35 15.67-35 35s15.67 35 35 35h34.17c68.85 0 124.67-55.82 124.67-124.67v-34.17c0-19.33-15.67-35-35-35s-35 15.67-35 35v34.17zM650.58 373.38v278.11H372.46V373.38h278.12m0.32-70H372.14c-38.48 0-69.67 31.19-69.67 69.67v278.77c0 38.48 31.19 69.67 69.67 69.67H650.9c38.48 0 69.67-31.19 69.67-69.67V373.05c0.01-38.48-31.19-69.67-69.67-69.67z" p-id="3557"></path></svg>