<svg xmlns="http://www.w3.org/2000/svg" xmlns:xlink="http://www.w3.org/1999/xlink" width="20" height="20.588" viewBox="0 0 20 20.588"><defs><style>.a{fill:#329d69;}.b{clip-path:url(#a);}</style><clipPath id="a"><rect class="a" width="20" height="20.588"/></clipPath></defs><g transform="translate(-189 -181)"><path class="a" d="M193.581,182.995c-1.548,0-3.066,1.627-3.066,4s1.519,4,3.066,4,3.066-1.627,3.066-4-1.519-4-3.066-4Zm-4.581,4c0-2.881,1.905-5.511,4.581-5.511s4.581,2.63,4.581,5.511-1.905,5.511-4.581,5.511S189,189.872,189,186.99Zm0,0" transform="translate(0 -0.466)"/><g transform="translate(189 181)"><g class="b" transform="translate(0 0)"><path class="a" d="M257.471,501.048a.794.794,0,0,1,.862.72l.6,6.668a2.922,2.922,0,1,1-5.808,0l.6-6.668a.794.794,0,0,1,1.581.142l-.6,6.677a1.334,1.334,0,1,0,2.647,0l-.6-6.677a.794.794,0,0,1,.72-.861Zm10.469,0a.794.794,0,0,1,.861.72l.6,6.668a2.922,2.922,0,1,1-5.808,0l.6-6.668a.794.794,0,0,1,1.581.142l-.6,6.677a1.334,1.334,0,1,0,2.647,0l-.6-6.677a.794.794,0,0,1,.72-.861Zm0,0" transform="translate(-251.116 -491.119)"/><path class="a" d="M532.067,205.929a.794.794,0,0,1,.794.794v5.308a3.106,3.106,0,1,0,6.211,0v-5.308a.794.794,0,0,1,1.588,0v5.308a4.693,4.693,0,1,1-9.387,0v-5.308a.794.794,0,0,1,.794-.794Zm0,0" transform="translate(-520.658 -205.156)"/></g></g><path class="a" d="M615.856,184.976a.758.758,0,0,1,.758.757v6.1a.758.758,0,0,1-1.515,0v-6.1a.758.758,0,0,1,.758-.757Zm2.434,0a.757.757,0,0,1,.757.757v6.1a.757.757,0,0,1-1.515,0v-6.1a.757.757,0,0,1,.758-.757Zm0,0" transform="translate(-412.571 -3.858)"/></g></svg>