<?xml version="1.0" standalone="no"?><!DOCTYPE svg PUBLIC "-//W3C//DTD SVG 1.1//EN" "http://www.w3.org/Graphics/SVG/1.1/DTD/svg11.dtd"><svg t="1641516382501" class="icon" viewBox="0 0 1024 1024" version="1.1" xmlns="http://www.w3.org/2000/svg" p-id="2901" xmlns:xlink="http://www.w3.org/1999/xlink" width="200" height="200"><defs><style type="text/css"></style></defs><path d="M142.75 442.4l333.82 159.02c11.21 5.34 23.22 8.01 35.22 8.01 12.35 0 24.7-2.83 36.17-8.48l175.98-86.69 0.12 0.25 12.31-6.37 143.27-70.58c27.96-13.77 45.9-42.82 45.69-74-0.2-31.17-18.52-59.98-46.66-73.39L534.2 126.08v0.89c-19.98-6.32-41.57-4.76-60.72 4.68L141.78 295c-27.96 13.78-45.9 42.82-45.69 74 0.2 31.19 18.52 59.99 46.66 73.4z m466.46-198.19l237.38 113.08 0.34 0.17a7.48 7.48 0 0 1 4 6.58 7.535 7.535 0 0 1-4.18 6.78l-90.16 44.41-0.55-1.07-53.22 27.56-187.68 92.46-0.43 0.2c-1.98 0.85-4.22 0.8-6.16-0.12l-153.73-73.24 0.65-1.29-66.51-33.34-1.32 2.63-112.84-53.75-0.38-0.19a7.487 7.487 0 0 1-3.94-6.56 7.52 7.52 0 0 1 4.18-6.77l331.63-163.31 0.43-0.2c1.97-0.85 4.21-0.8 6.15 0.12l85.68 40.83 10.66 5.02zM919.36 655.52l-3.25-6.79-156 76.39-246.26 121.97-257.13-123.13-147.6-70.05-3.17 6.82c-9.35 20.1-10.26 38.67-2.71 55.18 6.99 15.29 20.97 28.04 41.54 37.89l333.81 159.84c11.22 5.38 23.23 8.06 35.23 8.06 12.35 0 24.7-2.85 36.18-8.53l331.68-164.21c20.42-10.11 34.22-23.01 41.02-38.36 7.34-16.58 6.22-35.11-3.34-55.08z" p-id="2902"></path><path d="M143.76 597.8l333.78 159.83c11.22 5.38 23.23 8.07 35.23 8.07 12.35 0 24.71-2.85 36.18-8.53l331.7-164.21c19.62-9.71 34.3-26.53 41.33-47.35 7.11-21.07 5.44-29.85-4.02-49.11l-3.68-7.48-10.48 6.16-77.11 38.07 0.2 0.09-314.08 155.5-29.75-14.24-376.82-178-2.97 7.3c-7.96 19.59-8.1 38.77-0.41 55.47 7.27 15.8 21.41 29.09 40.9 38.43z" p-id="2903"></path></svg>