<?xml version="1.0" standalone="no"?><!DOCTYPE svg PUBLIC "-//W3C//DTD SVG 1.1//EN" "http://www.w3.org/Graphics/SVG/1.1/DTD/svg11.dtd"><svg t="1642496608930" class="icon" viewBox="0 0 1024 1024" version="1.1" xmlns="http://www.w3.org/2000/svg" p-id="1856" xmlns:xlink="http://www.w3.org/1999/xlink" width="200" height="200"><defs><style type="text/css"></style></defs><path d="M834.62 164.5H188.59c-37.68 0-68.34 30.66-68.34 68.34v470.44c0 37.68 30.66 68.34 68.34 68.34h288.76v37.73H269.03c-18.89 0-34.26 15.37-34.26 34.26s15.37 34.26 34.26 34.26h485.15c18.89 0 34.26-15.37 34.26-34.26s-15.37-34.26-34.26-34.26H545.86v-37.73h288.76c37.68 0 68.34-30.66 68.34-68.34V232.83c0-37.68-30.65-68.33-68.34-68.33z m6.03 543.12H182.57V228.5h658.09v479.12z" p-id="1857"></path></svg>