<?xml version="1.0" standalone="no"?><!DOCTYPE svg PUBLIC "-//W3C//DTD SVG 1.1//EN" "http://www.w3.org/Graphics/SVG/1.1/DTD/svg11.dtd"><svg t="1641516390699" class="icon" viewBox="0 0 1024 1024" version="1.1" xmlns="http://www.w3.org/2000/svg" p-id="3032" xmlns:xlink="http://www.w3.org/1999/xlink" width="200" height="200"><defs><style type="text/css"></style></defs><path d="M546.53 151.54c0-18.69-12.79-37.87-34.43-37.87-17.22 0-34.44 18.69-34.44 37.87v130.84h68.87V151.54z m261.18 143.62c13.28-15.24 13.28-38.36-0.49-53.61-12.29-13.28-36.4-12.79-48.7 0.49l-83.13 93.45 49.19 53.12 83.13-93.45z m-502.19 93.45l48.2-54.1-85.09-91c-5.9-6.39-14.26-10.33-23.12-10.82-9.84 0-19.18 3.93-25.58 11.8-12.29 13.77-11.8 39.84 0.49 53.62 0.01-0.49 85.1 90.5 85.1 90.5z m-56.57 132.32H137.3c-17.22 0-34.43 18.69-34.43 37.87 0 19.19 17.22 37.87 34.43 37.87h111.65v-75.74z m636.97 0H774.27v75.75h111.65c17.22 0 34.43-18.69 34.43-37.87 0-19.19-16.72-37.88-34.43-37.88zM582.93 595.2h-80.67l69.85-64.93c13.28-12.79 14.76-32.95 3.44-47.71-10.82-14.26-30.5-16.23-43.28-3.94L424.06 579.46l-1.48 1.97c-12.79 14.26-16.23 34.43-9.84 52.13 6.89 18.2 22.63 29.51 40.34 29.51h82.14l-76.73 74.76c-12.79 12.79-13.77 33.45-2.46 47.71 5.41 6.89 14.26 11.31 23.12 11.31 7.87 0 15.25-2.95 20.66-8.36l113.62-110.67 2.46-2.46c11.81-14.26 14.76-34.43 7.87-51.65-7.38-17.2-23.12-28.51-40.83-28.51z m0 0" p-id="3033"></path><path d="M339.95 857.86V577.49c0-104.77 77.72-190.35 173.63-190.35 95.42 0 173.14 85.58 173.14 190.35v280.36H339.95z m459.4 0h-48.7V577.49c0-144.12-106.73-260.69-237.57-260.69-130.84 0-237.57 117.06-237.57 260.69v280.36h-48.7c-17.71 0-31.97 15.74-31.97 35.41 0 19.68 14.26 35.42 31.97 35.42h573.02c17.71 0 31.97-15.74 31.97-35.42 0.01-19.17-14.25-35.4-32.45-35.4z m0 0" p-id="3034"></path></svg>