<?xml version="1.0" standalone="no"?><!DOCTYPE svg PUBLIC "-//W3C//DTD SVG 1.1//EN" "http://www.w3.org/Graphics/SVG/1.1/DTD/svg11.dtd"><svg t="1644832615000" class="icon" viewBox="0 0 1024 1024" version="1.1" xmlns="http://www.w3.org/2000/svg" p-id="2053" xmlns:xlink="http://www.w3.org/1999/xlink" width="200" height="200"><defs><style type="text/css"></style></defs><path d="M454.99 538.47v-2.39 2.39z m-113.92-2.29v2.39-2.39z m621.42 310.91c-17.66-114.54-82.04-209.46-171.87-252.45 64.69-41.85 103.74-119.63 87.85-205.3-13.71-73.73-71.03-135.21-143.62-154.31-46.94-12.36-91.59-7.27-130.33 9.34-28.66-61.27-85.05-108.31-151.72-123.78-149.64-34.89-282.56 77.68-282.56 221.4 0 83.18 45.07 155.15 111.63 195.03C167.13 585.51 80.73 703.58 60.79 847.83c-4.67 33.75 22.74 63.55 56.8 63.55h622.14v-0.21h166.05c34.28 0 61.9-30.22 56.71-64.08z m-845.1 7.28C134.52 733.9 205.24 631.2 304.1 589.45l2.18-0.93c9.97-4.26 18.8-11.32 25.34-20.98 6.23-9.34 9.24-19.94 9.45-30.32-0.2-9.45-2.77-18.7-7.47-26.89-5.09-8.83-12.05-15.89-20.35-20.77l-2.19-1.35c-52.54-31.36-83.8-85.98-83.8-146.01 0-94.19 76.54-170.82 170.83-170.82s170.72 76.74 170.72 170.93c0 60.02-31.36 114.65-83.81 146.01l-2.18 1.35c-8.21 4.98-15.26 11.84-20.35 20.77-4.78 8.51-7.27 17.66-7.47 26.79 0.21 10.38 3.22 20.98 9.45 30.32 6.44 9.66 15.27 16.72 25.34 20.98l2.18 0.93c98.86 41.75 169.58 144.35 186.71 265.01H117.39v-0.1z m618.82-0.11C718.03 707.11 630.8 586.23 514.18 536.91c77.68-46.42 126.07-136.76 107.69-237.6 18.59-8.83 38.94-14.23 60.85-14.23 90.25 0 161.17 84.43 137.8 178.41-8.93 36.14-34.37 66.15-65.73 86.3l10.79-6.96c-7.79 5.09-14.43 11.84-19.11 20.56-4.78 8.62-6.96 18.07-6.96 27.21v6.75c0 10.38 2.8 20.98 8.72 30.32 5.92 9.45 14.23 16.51 23.57 20.98l-6.02-2.91c74.98 35.83 127.32 114.34 140.81 208.52H736.21z m0 0" p-id="2054"></path></svg>