<?xml version="1.0" standalone="no"?>
<!DOCTYPE svg PUBLIC "-//W3C//DTD SVG 1.1//EN" "http://www.w3.org/Graphics/SVG/1.1/DTD/svg11.dtd"><svg t="1654136027268"
  class="icon" viewBox="0 0 1024 1024" version="1.1" xmlns="http://www.w3.org/2000/svg" p-id="4655"
  xmlns:xlink="http://www.w3.org/1999/xlink" width="200" height="200">
  <defs>
    <style type="text/css">
      @font-face {
        font-family: feedback-iconfont;
        src: url("//at.alicdn.com/t/font_1031158_u69w8yhxdu.woff2?t=1630033759944") format("woff2"), url("//at.alicdn.com/t/font_1031158_u69w8yhxdu.woff?t=1630033759944") format("woff"), url("//at.alicdn.com/t/font_1031158_u69w8yhxdu.ttf?t=1630033759944") format("truetype");
      }
    </style>
  </defs>
  <path
    d="M512 798.3c-158.4 0-286.7-128.4-286.7-286.7 0-158.4 128.4-286.7 286.7-286.7 158.4 0 286.7 128.4 286.7 286.7 0.1 158.4-128.3 286.7-286.7 286.7z m0-43c134.6 0 243.7-109.1 243.7-243.7S646.6 267.9 512 267.9 268.3 377.1 268.3 511.6c0 134.6 109.1 243.7 243.7 243.7z m5.6-178.5l-54.7-59.6-64.4 66.7c-8.2 8.6-21.8 8.8-30.4 0.6-8.6-8.2-8.8-21.8-0.6-30.4l80.2-83.2c4.1-4.3 9.8-6.7 15.7-6.6 5.9 0.1 11.6 2.6 15.6 6.9l54.9 59.9 91.8-92.1c5.4-5.6 13.4-7.8 20.9-5.9 7.5 2 13.4 7.8 15.4 15.3 2 7.5-0.3 15.5-5.8 20.9l-107.6 108c-4.1 4.1-9.8 6.4-15.7 6.3-5.8 0-11.4-2.5-15.3-6.8z m0 0"
    p-id="4656"></path>
</svg>