<?xml version="1.0" standalone="no"?><!DOCTYPE svg PUBLIC "-//W3C//DTD SVG 1.1//EN" "http://www.w3.org/Graphics/SVG/1.1/DTD/svg11.dtd"><svg t="1657697920300" class="icon" viewBox="0 0 1024 1024" version="1.1" xmlns="http://www.w3.org/2000/svg" p-id="6355" xmlns:xlink="http://www.w3.org/1999/xlink" width="200" height="200"><defs><style type="text/css">@font-face { font-family: feedback-iconfont; src: url("//at.alicdn.com/t/font_1031158_u69w8yhxdu.woff2?t=1630033759944") format("woff2"), url("//at.alicdn.com/t/font_1031158_u69w8yhxdu.woff?t=1630033759944") format("woff"), url("//at.alicdn.com/t/font_1031158_u69w8yhxdu.ttf?t=1630033759944") format("truetype"); }
</style></defs><path d="M608 981.333333c-4.266667 0-8.533333 0-10.666667-2.133333-12.8-4.266667-21.333333-17.066667-21.333333-29.866667v-874.666666c0-17.066667 14.933333-32 32-32s32 14.933333 32 32v789.333333l157.866667-179.2c12.8-12.8 32-14.933333 44.8-2.133333 12.8 12.8 14.933333 32 2.133333 44.8l-213.333333 243.2c-6.4 6.4-14.933333 10.666667-23.466667 10.666666zM416 981.333333c-17.066667 0-32-14.933333-32-32v-789.333333l-157.866667 179.2c-12.8 12.8-32 14.933333-44.8 2.133333-12.8-10.666667-14.933333-32-2.133333-44.8l213.333333-243.2c10.666667-12.8 32-14.933333 44.8-2.133333 6.4 4.266667 10.666667 14.933333 10.666667 23.466667v874.666666c0 17.066667-14.933333 32-32 32z" p-id="6356"></path></svg>