<svg class="icon" viewBox="0 0 1024 1024" xmlns="http://www.w3.org/2000/svg" width="200" height="200"><path d="M716.43 130.09c-67.86 0-122.88 55.02-122.88 122.88 0 67.87 55.02 122.88 122.88 122.88 67.87 0 122.88-55.02 122.88-122.88 0-67.86-55.02-122.88-122.88-122.88zm0 191.15c-37.7 0-68.27-30.57-68.27-68.27 0-37.7 30.57-68.27 68.27-68.27 37.7 0 68.27 30.56 68.27 68.27 0 37.7-30.57 68.27-68.27 68.27zM476.32 247.4a27.104 27.104 0 0 0-19.3-8.09c-7.26 0-14.21 2.91-19.31 8.09L263.93 423.17c-106.63 107.86-106.63 282.73 0 390.62a270.876 270.876 0 0 0 193.09 80.89c72.6 0 142.16-29.14 193.08-80.89 106.63-107.86 106.63-282.76 0-390.62L476.32 247.4zm134.95 527.98a216.247 216.247 0 0 1-154.25 64.68c-58.01 0-113.59-23.3-154.26-64.68-85.6-86.56-85.6-227.19 0-313.81l154.26-156 154.25 156c85.61 86.59 85.61 227.24 0 313.81z"/><path d="M579.9 597.96a27.301 27.301 0 0 0-13.65 23.65c0 28.97-11.51 56.75-31.99 77.23a109.262 109.262 0 0 1-77.24 31.99 27.303 27.303 0 1 0 0 54.61c43.45 0 85.12-17.26 115.85-47.99a163.832 163.832 0 0 0 47.99-115.85c0-9.75-5.21-18.77-13.66-23.65a27.308 27.308 0 0 0-27.3.01z"/></svg>