<svg class="icon" viewBox="0 0 1024 1024" xmlns="http://www.w3.org/2000/svg" width="200" height="200"><defs><style>@font-face{font-family:feedback-iconfont;src:url(//at.alicdn.com/t/font_1031158_u69w8yhxdu.woff2?t=1630033759944) format(&quot;woff2&quot;),url(//at.alicdn.com/t/font_1031158_u69w8yhxdu.woff?t=1630033759944) format(&quot;woff&quot;),url(//at.alicdn.com/t/font_1031158_u69w8yhxdu.ttf?t=1630033759944) format(&quot;truetype&quot;)}</style></defs><path d="m472.477 982.933-259.76-259.76-11.297-11.297a423.53 423.53 0 1 1 621.19 0L551.555 982.933l-39.508 39.507zm39.507-39.507 259.76-259.76a362.491 362.491 0 0 0 107.287-259.761 367.047 367.047 0 1 0-734.157 0 358.185 358.185 0 0 0 101.67 254.143zm0-321.861a197.66 197.66 0 1 1 197.66-197.66 200.094 200.094 0 0 1-197.66 197.66zm0-56.171a141.177 141.177 0 1 0-141.177-141.177 139.804 139.804 0 0 0 141.177 141.177zm0 0"/></svg>