<svg class="icon" viewBox="0 0 1024 1024" xmlns="http://www.w3.org/2000/svg" width="200" height="200"><path d="M792.71 409.61c42.85 0 77.59-34.38 77.59-76.8v-102.4c0-42.42-34.74-76.8-77.59-76.8H231.09c-42.86 0-77.59 34.38-77.59 76.8v102.4c0 42.42 34.74 76.8 77.59 76.8H358.3v102.4c0 14.14 11.46 25.6 25.6 25.6h230.4v76.8H231.09c-42.86 0-77.59 34.38-77.59 76.8v102.4c0 42.42 34.74 76.8 77.59 76.8H792.7c42.85 0 77.59-34.38 77.59-76.8v-102.4c0-42.42-34.74-76.8-77.59-76.8H665.5v-102.4c0-14.14-11.46-25.6-25.6-25.6H409.5v-76.8h383.21zm0 256c14.29 0 25.85 11.47 25.85 25.6v102.4c0 14.13-11.57 25.6-25.85 25.6H231.09c-14.29 0-25.86-11.47-25.86-25.6v-102.4c0-14.13 11.57-25.6 25.86-25.6h561.62zm-587.47-332.8v-102.4c0-14.13 11.57-25.6 25.86-25.6h561.61c14.29 0 25.85 11.47 25.85 25.6v102.4c0 14.13-11.57 25.6-25.85 25.6H231.09c-14.28 0-25.85-11.47-25.85-25.6zm0 0"/><path d="M358.3 768.01h307.2c14.14 0 25.6-11.46 25.6-25.6s-11.47-25.6-25.6-25.6H358.3c-14.14 0-25.6 11.46-25.6 25.6s11.46 25.6 25.6 25.6zm332.8-486.4c0-14.14-11.47-25.6-25.6-25.6H358.3c-14.14 0-25.6 11.46-25.6 25.6s11.46 25.6 25.6 25.6h307.2c14.14 0 25.6-11.46 25.6-25.6zm0 0"/></svg>