<svg class="icon" viewBox="0 0 1024 1024" xmlns="http://www.w3.org/2000/svg" width="200" height="200"><defs><style>@font-face{font-family:feedback-iconfont;src:url(//at.alicdn.com/t/font_1031158_u69w8yhxdu.woff2?t=1630033759944) format(&quot;woff2&quot;),url(//at.alicdn.com/t/font_1031158_u69w8yhxdu.woff?t=1630033759944) format(&quot;woff&quot;),url(//at.alicdn.com/t/font_1031158_u69w8yhxdu.ttf?t=1630033759944) format(&quot;truetype&quot;)}</style></defs><path d="M258 797.7c-10.3.1-19.4-6.7-22.4-16.6-2.9-9.9 1.1-20.5 9.8-26.1 52.7-33.6 111.7-55.8 173.5-65.3h.4v-12.9c-90.2-40.8-147-131.9-144-230.8 6.9-115.4 96.7-208.7 211.8-219.9 115.1-11.2 221.2 63 250.2 174.9s-27.7 228.3-133.7 274.5v14.6c61.3 10.9 120 32.8 173.4 64.8 7.5 4 12.2 11.8 12.2 20.3s-4.7 16.3-12.2 20.3c-7.5 4-16.6 3.6-23.7-1.1-47.5-28.6-99.8-48.5-154.4-58.7h-18.3c-6.1 0-12-2.4-16.3-6.7-4.3-4.3-6.8-10.2-6.7-16.3v-53.3c0-9.9 6.3-18.6 15.6-21.8 86.6-31.1 138.2-120.1 122-210.7-16.2-90.6-95.5-156.2-187.5-155.3-92 .9-169.9 68.2-184.3 159.1-14.4 90.9 39 178.9 126.2 208.2 9.5 3.1 16 11.9 16 21.9v52.1c0 6.1-2.4 12-6.7 16.3-4.3 4.3-10.2 6.8-16.3 6.7h-22.2c-53.3 9.3-104.3 29.1-149.9 58.3-3.8 2.4-8.1 3.6-12.6 3.6l.1-.1zm0 0"/></svg>