<svg class="icon" viewBox="0 0 1024 1024" xmlns="http://www.w3.org/2000/svg" width="200" height="200"><path d="M718.67 434.32c-13.9-13.9-32.33-21.55-51.9-21.55h-3.95v-29.75c0-83.17-67.66-150.83-150.83-150.83-83.17 0-150.84 67.66-150.84 150.83v29.75h-3.95c-40.42.07-73.36 33.01-73.43 73.43v232.17c0 40.49 32.94 73.43 73.43 73.43h309.56c40.5 0 73.44-32.94 73.44-73.43V486.22c.02-19.57-7.63-38.01-21.53-51.9zm-313.8-21.54v-29.75c0-59.07 48.06-107.13 107.13-107.13 59.07 0 107.13 48.06 107.13 107.13v29.75H404.87zm-77.4 73.43c0-16.41 13.34-29.75 29.74-29.75h309.56c7.94 0 15.41 3.1 21.04 8.71 5.54 5.54 8.71 13.21 8.71 21.04v232.84c-.18 7.59-3.33 14.97-8.71 20.35-5.61 5.62-13.08 8.71-21.04 8.71H357.22c-7.95 0-15.42-3.09-21.03-8.72-5.62-5.62-8.71-13.08-8.71-21.03V486.21z"/><path d="M512 668.73c12.04 0 21.84-9.8 21.84-21.85V543.7c0-12.05-9.8-21.85-21.84-21.85-12.05 0-21.85 9.8-21.85 21.85v103.19c0 12.04 9.81 21.84 21.85 21.84z"/></svg>