<svg class="icon" viewBox="0 0 1024 1024" xmlns="http://www.w3.org/2000/svg" width="200" height="200"><path d="M766.6 237.7H257.4c-25.8 0-46.9 21-46.9 46.9v370.8c0 25.8 21 46.9 46.9 46.9h234.9c-.2 1-.3 2.1-.3 3.2V746H320.8c-11 0-20 9-20 20s9 20 20 20h382.4c11 0 20-9 20-20s-9-20-20-20H532v-40.5c0-1.1-.1-2.2-.3-3.2h234.9c25.8 0 46.9-21 46.9-46.9V284.6c0-25.9-21-46.9-46.9-46.9zm6.9 417.7c0 3.7-3.1 6.9-6.9 6.9H257.4c-3.7 0-6.9-3.1-6.9-6.9V284.6c0-3.7 3.1-6.9 6.9-6.9h509.2c3.7 0 6.9 3.1 6.9 6.9v370.8zm0 0"/></svg>