<svg class="icon" viewBox="0 0 1024 1024" xmlns="http://www.w3.org/2000/svg" width="200" height="200"><path d="m867 238.8-88.2-77.3c-10.7-9.3-24.4-14.5-38.5-14.5h-452c-14.1 0-27.7 5.1-38.2 14.3l-89 77.4c-12.1 10.5-19 25.6-19 41.7v89.5c0 38.2 15.4 72.7 40.3 97.8V821c0 20.4 16.5 36.9 36.9 36.9h587.2c20.4 0 36.9-16.5 36.9-36.9V469.9c26.2-25.4 42.4-60.7 42.4-99.9v-89.7c-.1-15.8-6.9-31-18.8-41.5zm-583.2-45.5h461.1l56.3 49.4H227l56.8-49.4zM607 288.9v77.8c0 47.3-33.9 89.5-80.9 95.5-56.8 7.3-105.3-37-105.3-92.3v-81H607zm-418.6 77.8v-77.8h186.2v81c0 55.4-48.5 99.6-105.3 92.3-47.1-6-80.9-48.2-80.9-95.5zm40.2 415.4V498.9c16.3 6.7 34.1 10.5 52.8 10.5 48.5 0 91.2-24.9 116.2-62.6 25 37.7 67.7 62.6 116.2 62.6s91.2-25 116.2-62.6c25 37.7 67.7 62.6 116.2 62.6 17.8 0 34.9-3.5 50.7-9.7v282.4c0 16.3-13.2 29.5-29.5 29.5H258c-16.2-.1-29.4-13.2-29.4-29.5zm610.8-412.2c0 55.4-48.5 99.6-105.3 92.3-46.9-6-80.9-48.2-80.9-95.5v-77.8h186.2v81z"/></svg>