<svg class="icon" viewBox="0 0 1024 1024" xmlns="http://www.w3.org/2000/svg" width="200" height="200"><path d="M237.68 293.26c0-30.19 24.48-54.67 54.67-54.67h34.17c19.33 0 35-15.67 35-35s-15.67-35-35-35h-34.17c-68.85 0-124.67 55.82-124.67 124.67v34.17c0 19.33 15.67 35 35 35s35-15.67 35-35v-34.17zm493.02-54.67c30.19 0 54.67 24.48 54.67 54.67v34.17c0 19.33 15.67 35 35 35s35-15.67 35-35v-34.17c0-68.85-55.82-124.67-124.67-124.67h-34.17c-19.33 0-35 15.67-35 35s15.67 35 35 35h34.17zM292.35 786.28c-30.19 0-54.67-24.48-54.67-54.67v-34.17c0-19.33-15.67-35-35-35s-35 15.67-35 35v34.17c0 68.85 55.82 124.67 124.67 124.67h34.17c19.33 0 35-15.67 35-35s-15.67-35-35-35h-34.17zm493.01-54.67c0 30.19-24.48 54.67-54.67 54.67h-34.17c-19.33 0-35 15.67-35 35s15.67 35 35 35h34.17c68.85 0 124.67-55.82 124.67-124.67v-34.17c0-19.33-15.67-35-35-35s-35 15.67-35 35v34.17zM650.58 373.38v278.11H372.46V373.38h278.12m.32-70H372.14c-38.48 0-69.67 31.19-69.67 69.67v278.77c0 38.48 31.19 69.67 69.67 69.67H650.9c38.48 0 69.67-31.19 69.67-69.67V373.05c.01-38.48-31.19-69.67-69.67-69.67z"/></svg>