<svg class="icon" viewBox="0 0 1024 1024" xmlns="http://www.w3.org/2000/svg" width="200" height="200"><path d="M311.43 571.75h110.68c20.43 0 37.06-16.62 37.06-37.06s-16.62-37.06-37.06-37.06H311.43c-20.43 0-37.06 16.62-37.06 37.06s16.62 37.06 37.06 37.06zm0 121.55H513.2c20.43 0 37.06-16.62 37.06-37.06s-16.62-37.06-37.06-37.06H311.43c-20.43 0-37.06 16.62-37.06 37.06s16.62 37.06 37.06 37.06zm215.53-188.31c7.22 7.22 16.71 10.84 26.2 10.84s18.98-3.61 26.2-10.84L830.15 254.2c14.45-14.45 14.45-37.96 0-52.41-14.45-14.45-37.96-14.45-52.41 0L526.96 452.58c-14.45 14.45-14.45 37.96 0 52.41z"/><path d="M818.91 334.44c-20.46 0-37.1 16.64-37.1 37.1v341.97c0 3.91-3.18 7.08-7.08 7.08h-36.75V485.11c0-20.46-16.65-37.1-37.1-37.1s-37.1 16.64-37.1 37.1v341.97c0 3.91-3.18 7.08-7.08 7.08H248.5c-3.91 0-7.08-3.18-7.08-7.08V328.83c0-3.91 3.18-7.08 7.08-7.08h306.43c20.46 0 37.1-16.64 37.1-37.1s-16.64-37.1-37.1-37.1H359.45v-32.28c0-3.91 3.18-7.08 7.08-7.08h306.43c20.46 0 37.1-16.64 37.1-37.1s-16.64-37.1-37.1-37.1H366.53c-44.82 0-81.29 36.47-81.29 81.29v32.28h-36.75c-44.82 0-81.29 36.47-81.29 81.29v498.26c0 44.82 36.47 81.29 81.29 81.29h408.2c44.82 0 81.29-36.47 81.29-81.29v-32.28h36.75c44.82 0 81.29-36.47 81.29-81.29V371.55c0-20.46-16.65-37.11-37.11-37.11z"/></svg>