<svg xmlns="http://www.w3.org/2000/svg" width="20" height="20.588"><defs><clipPath id="a"><path class="a" d="M0 0h20v20.588H0z"/></clipPath><style>.a{fill:#329d69}</style></defs><path class="a" d="M4.581 1.529c-1.548 0-3.066 1.627-3.066 4s1.519 4 3.066 4 3.066-1.627 3.066-4-1.519-4-3.066-4ZM0 5.529C0 2.648 1.905.018 4.581.018s4.581 2.63 4.581 5.511-1.905 5.511-4.581 5.511S0 8.406 0 5.524Zm0 0"/><g style="clip-path:url(#a)"><path class="a" d="M6.355 9.929a.794.794 0 0 1 .862.72l.6 6.668a2.922 2.922 0 1 1-5.808 0l.6-6.668a.794.794 0 0 1 1.581.142l-.6 6.677a1.334 1.334 0 1 0 2.647 0l-.6-6.677a.794.794 0 0 1 .72-.861Zm10.469 0a.794.794 0 0 1 .861.72l.6 6.668a2.922 2.922 0 1 1-5.808 0l.6-6.668a.794.794 0 0 1 1.581.142l-.6 6.677a1.334 1.334 0 1 0 2.647 0l-.6-6.677a.794.794 0 0 1 .72-.861Zm0 0"/><path class="a" d="M11.409.773a.794.794 0 0 1 .794.794v5.308a3.106 3.106 0 1 0 6.211 0V1.567a.794.794 0 0 1 1.588 0v5.308a4.694 4.694 0 1 1-9.387 0V1.567a.794.794 0 0 1 .794-.794Zm0 0"/></g><path class="a" d="M14.285.118a.758.758 0 0 1 .758.757v6.1a.758.758 0 0 1-1.515 0v-6.1a.758.758 0 0 1 .758-.757Zm2.434 0a.757.757 0 0 1 .757.757v6.1a.758.758 0 0 1-1.515 0v-6.1a.757.757 0 0 1 .758-.757Zm0 0"/></svg>