<svg class="icon" viewBox="0 0 1024 1024" xmlns="http://www.w3.org/2000/svg" width="200" height="200"><path d="M703.1 670.9c-1.4-55.3-26.7-107.2-69.3-142.4l-3.4-2.8V275.3c0-65.3-53-118.3-118.3-118.3l-3.6.1c-63.9 1.9-114.8 54.3-114.8 118.3v250.4l-3.4 2.8c-44 36.3-69.4 90.3-69.4 147.4 0 105.4 85.5 191 191.1 191s191.1-85.6 191.1-191.1v-5zM512 812.4c-75.4 0-136.5-61.1-136.5-136.5 0-46.1 23-88.3 60.7-113.6 7.6-5.1 12.1-13.6 12.1-22.7v-64h33.4c16.2 0 24.3-8.1 24.3-24.3 0-16.2-8.1-24.3-24.3-24.3h-33.4v-60.7h33.4c16.2 0 24.3-8.1 24.3-24.3 0-16.2-8.1-24.3-24.3-24.3h-33.4v-42.5c0-16.9 6.7-33.1 18.7-45.1 11.9-11.9 28.2-18.7 45.1-18.7 16.9 0 33.1 6.7 45.1 18.7 11.9 11.9 18.7 28.2 18.7 45.1v264.2c0 9.1 4.5 17.6 12.1 22.7 38 25.3 60.7 67.9 60.7 113.6-.2 75.5-61.3 136.7-136.7 136.7z"/></svg>