<svg class="icon" viewBox="0 0 1024 1024" xmlns="http://www.w3.org/2000/svg" width="200" height="200"><path d="M658.6 760c14.2 0 27.3 7.6 34.4 19.9 7.1 12.3 7.1 27.4 0 39.7-7.1 12.3-20.2 19.9-34.4 19.9H381.9c-21.9 0-39.7-17.8-39.7-39.7 0-21.9 17.8-39.7 39.7-39.7h276.7zM480.7 184.1c100.5 0 185.1 68.4 210.1 161.4 85.8 14.7 148.6 89.1 148.5 176.2.1 47.8-18.9 93.6-52.9 127.2-33.9 33.6-79.9 52.2-127.7 51.6h-98.9v-139h39.6L520.3 482l-79.1 79.5h39.6v139H322.4c-76.6-.2-138.6-62.4-138.5-139 0-56.4 33.5-104.9 81.5-126.7-1.6-10.6-2.4-21.4-2.4-32.2.1-120.7 97.5-218.5 217.7-218.5zm0 0"/></svg>