<svg class="icon" viewBox="0 0 1024 1024" xmlns="http://www.w3.org/2000/svg" width="200" height="200"><defs><style>@font-face{font-family:feedback-iconfont;src:url(//at.alicdn.com/t/font_1031158_u69w8yhxdu.woff2?t=1630033759944) format(&quot;woff2&quot;),url(//at.alicdn.com/t/font_1031158_u69w8yhxdu.woff?t=1630033759944) format(&quot;woff&quot;),url(//at.alicdn.com/t/font_1031158_u69w8yhxdu.ttf?t=1630033759944) format(&quot;truetype&quot;)}</style></defs><path d="M514.048 54.272q95.232 0 178.688 36.352t145.92 98.304 98.304 145.408 35.84 178.688T936.96 691.2t-98.304 145.408-145.92 98.304-178.688 35.84-178.176-35.84-145.408-98.304T92.16 691.2 56.32 513.024t35.84-178.688 98.304-145.408 145.408-98.304 178.176-36.352zm1.024 772.096q26.624 0 44.544-17.92t17.92-43.52q0-26.624-17.92-44.544t-44.544-17.92-44.544 17.92-17.92 44.544q0 25.6 17.92 43.52t44.544 17.92zm52.224-251.904q-1.024-16.384 20.48-34.816t48.128-40.96T685.056 448t24.576-65.024q2.048-39.936-8.192-74.752t-33.792-59.904-60.928-39.936-87.552-14.848q-62.464 0-103.936 22.016T348.16 268.8t-35.84 64.512-9.216 55.808q1.024 26.624 16.896 38.912t34.304 12.8 33.792-10.24 15.36-31.232q0-12.288 7.68-30.208t20.992-34.304 32.256-27.648 42.496-11.264q46.08 0 73.728 23.04t25.6 57.856q0 17.408-10.24 32.256t-26.112 28.672-33.792 27.648-33.792 28.672-26.624 32.256-11.776 37.888l1.024 38.912q0 15.36 14.336 29.184t37.888 14.848q23.552-1.024 37.376-15.36t12.8-32.768v-24.576z"/></svg>