<svg class="icon" viewBox="0 0 1024 1024" xmlns="http://www.w3.org/2000/svg" width="200" height="200"><defs><style>@font-face{font-family:feedback-iconfont;src:url(//at.alicdn.com/t/font_1031158_u69w8yhxdu.woff2?t=1630033759944) format(&quot;woff2&quot;),url(//at.alicdn.com/t/font_1031158_u69w8yhxdu.woff?t=1630033759944) format(&quot;woff&quot;),url(//at.alicdn.com/t/font_1031158_u69w8yhxdu.ttf?t=1630033759944) format(&quot;truetype&quot;)}</style></defs><path d="M608 981.333c-4.267 0-8.533 0-10.667-2.133-12.8-4.267-21.333-17.067-21.333-29.867V74.667c0-17.067 14.933-32 32-32s32 14.933 32 32V864l157.867-179.2c12.8-12.8 32-14.933 44.8-2.133 12.8 12.8 14.933 32 2.133 44.8l-213.333 243.2c-6.4 6.4-14.934 10.666-23.467 10.666zm-192 0c-17.067 0-32-14.933-32-32V160L226.133 339.2c-12.8 12.8-32 14.933-44.8 2.133-12.8-10.666-14.933-32-2.133-44.8l213.333-243.2c10.667-12.8 32-14.933 44.8-2.133C443.733 55.467 448 66.133 448 74.667v874.666c0 17.067-14.933 32-32 32z"/></svg>